# xmcd
#
# Track frame offsets:
#	150
#	15999
#	30726
#	47466
#	62778
#	76695
#	90967
#	107041
#	120773
#	136513
#	151892
#	166614
#	178169
#
# Disc length: 2564 seconds
#
# Revision: 0
# Processed by: cddbd v1.5.2PL0 Copyright (c) Steve Scherf et al.
# Submitted via: EasyCDDAExtractor 16.0.6.1
#
DISCID=7f0a020d
DTITLE=Συλλογικός δίσκος - Τραγούδια του άστεως, 1930-1950
DYEAR=1998
DGENRE=Ελαφρά
TTITLE0=Βέμπο Σοφία - Συγγνώμη σού ζητώ [1937-1938, Α. Σακελλαρίου-Κ. Γιαννίδη
TTITLE0=]
TTITLE1=Γούναρης Νίκος - Γλυκά μου μάτια [1953, Ν. Γούναρη-Στ. Χαρώνη]
TTITLE2=Βέμπο Σοφία - Η ζωή μας είναι λίγη [1953, Ασημακό/λου-Σταυρό/λου-Παπαδ
TTITLE2=ούκα-Θεοφανίδη]
TTITLE3=Ντίνη Χρυσούλα - Τι θα γίνω χωρίς εσένα [1938, Μ. Πορτοκάλη]
TTITLE4=Γούναρης Νίκος - Λίγα λουλούδια αν θέλεις στείλε μου [1955, Σπυρόπουλο
TTITLE4=υ-Παπαδούκα-Γιαννίδη]
TTITLE5=Γούναρης Νίκος-Μόρσυ Μαριάννα-χορωδία - Το τανγκό του μυστηρίου [1938,
TTITLE5=Κ. Μπέζου, χαβαγιές του συγκρ.]
TTITLE6=Βέμπο Σοφία - Παίξε τσιγγάνε [1939, τσιγγάνικο, Σπυρόπουλου-Παπαδούκα-
TTITLE6=Γιαννίδη]
TTITLE7=Τρίο Βαμπάρη - Το όνειρο του αλήτη [1938, Γιάννη Γιαννίδη-Τάσου Βαμπάρ
TTITLE7=η]
TTITLE8=Μένδρη Κάκια - Άδικα πήγαν τα νιάτα μου [1939, Αττίκ]
TTITLE9=Βέμπο Σοφία - Σε λυπάμαι [1937-1938, Κιούση-Γιαννίδη]
TTITLE10=Μένδρη Κάκια - Μαραμένα τα γιούλια κι οι βιόλες [1936-1937, βαλς, Ηλ.
TTITLE10=Τριανταφύλλου-Αττίκ]
TTITLE11=Σαβάρης Γ.-Φιλιππόπουλος Δ.-Τουμπακάρης Ν. - Ριρί Ριρίκα [1929-30, οπ
TTITLE11=ερέτα Ριρί Ριρίκα]
TTITLE12=Δανάη - Χτες το βράδυ [1938, Δημ. Γιανουκάκη-Κ. Γιαννίδη]
EXTD=
EXTT0=
EXTT1=
EXTT2=
EXTT3=
EXTT4=
EXTT5=
EXTT6=
EXTT7=
EXTT8=
EXTT9=
EXTT10=
EXTT11=
EXTT12=
PLAYORDER=
